<svg xmlns="http://www.w3.org/2000/svg" width="296" height="93.394" viewBox="0 0 296 93.394">
    <path id="Path_23" data-name="Path 23" d="M99.576,56.445l1.45,4.462h4.691l-3.8,2.757,1.45,4.462-3.8-2.757-3.8,2.757,1.45-4.462-3.8-2.757h4.691Z" transform="translate(-25.461 -15.381)" fill="#fff"/>
    <g id="Group_44" data-name="Group 44" transform="translate(0 0.916)">
      <rect id="Rectangle_50" data-name="Rectangle 50" width="150.751" height="9.154" transform="translate(0 82.823)" fill="#fff"/>
      <rect id="Rectangle_51" data-name="Rectangle 51" width="150.751" height="9.154" fill="#fff"/>
    </g>
    <path id="Path_24" data-name="Path 24" d="M15.8,22.924h6.75V73.693q0,10.273-9.611,10.271T3.325,73.693V22.924h6.75V73.693q0,3.521,2.861,3.521T15.8,73.693Z" transform="translate(-0.906 -6.247)" fill="#fff"/>
    <path id="Path_25" data-name="Path 25" d="M47.893,65.155a9.808,9.808,0,0,0-.441-3.265,11.071,11.071,0,0,0-1.686-2.824q-.736-.953-1.908-2.311T41.473,53.93q-1.209-1.467-2.348-2.861a27.059,27.059,0,0,1-1.8-2.42,10.769,10.769,0,0,1-1.43-3.3,19.06,19.06,0,0,1-.4-4.328V31.994q0-9.976,9.757-9.978,4.99,0,7.081,2.458t2.091,7.519V43H48.113V32.068a3.818,3.818,0,0,0-.661-2.348,2.575,2.575,0,0,0-2.2-.88q-2.86,0-2.861,3.154v8.95a9.826,9.826,0,0,0,.22,2.2,4.965,4.965,0,0,0,.954,1.908,17.388,17.388,0,0,0,1.614,2.054q1.1,1.248,2.347,2.678t2.459,2.934q1.209,1.5,2.09,2.751a13.763,13.763,0,0,1,1.21,2.018,11.819,11.819,0,0,1,.77,2.091A16.5,16.5,0,0,1,54.5,62a28.362,28.362,0,0,1,.147,3.081v8.657q0,4.842-2.239,7.41t-7.3,2.568q-5.061,0-7.337-2.568t-2.273-7.41V60.9h6.529V73.739a3.674,3.674,0,0,0,.7,2.348,2.685,2.685,0,0,0,2.239.88q2.933,0,2.935-3.228Z" transform="translate(-9.672 -5.999)" fill="#fff"/>
    <path id="Path_26" data-name="Path 26" d="M80.422,83.3l-1.1-9.318h-7.41q-.368,2.348-.623,4.66t-.55,4.658h-6.6l7.85-60.38h7.85L87.244,83.3ZM78.588,67.75q-.81-6.9-1.542-13.609t-1.393-13.83q-1.32,14.233-3.082,27.438Z" transform="translate(-17.477 -6.247)" fill="#fff"/>
    <path id="Path_27" data-name="Path 27" d="M126.394,60.9h6.163V73.372q0,5.283-2.127,7.813t-6.824,2.531q-9.757,0-9.757-10.2V32.435q0-10.417,9.757-10.419,8.95,0,8.951,10.272V43h-6.163V32.288a4.4,4.4,0,0,0-.623-2.6,2.524,2.524,0,0,0-2.166-.844q-2.86,0-2.861,3.448V73.446q0,3.521,2.861,3.521,2.788,0,2.789-3.521Z" transform="translate(-31.023 -5.999)" fill="#fff"/>
    <path id="Path_28" data-name="Path 28" d="M145.718,83.3V22.924h9.757q4.915,0,7.007,2.494t2.09,8V45.667q0,5.137-3.227,6.383a4.838,4.838,0,0,1,2.788,1.908,7.15,7.15,0,0,1,1.173,4.4V73.106q0,5.357-2.457,7.776T155.475,83.3Zm12.545-50.109a4.166,4.166,0,0,0-.661-2.678,2.661,2.661,0,0,0-2.127-.77h-3.007V49.483h3.081q2.713,0,2.714-3.155Zm.147,25.752a4.523,4.523,0,0,0-.624-2.714,2.676,2.676,0,0,0-2.237-.808h-3.081v21.13h3.007q2.933,0,2.935-3.521Z" transform="translate(-39.708 -6.247)" fill="#fff"/>
    <path id="Path_29" data-name="Path 29" d="M178.592,83.3V22.924h9.537q4.844,0,7.263,2.751t2.421,7.594V73.033q0,10.271-9.684,10.271Zm12.472-50.036q0-3.521-2.935-3.521h-2.787V76.555h2.787q2.934,0,2.935-3.521Z" transform="translate(-48.666 -6.247)" fill="#fff"/>
    <g id="Group_45" data-name="Group 45" transform="translate(162.517)">
      <path id="Path_30" data-name="Path 30" d="M223.391,92.77V1.374h24.654V11.7H233.609V41.02h9.662V51.347h-9.662V82.554H248.6V92.77Z" transform="translate(-223.391 -0.374)" fill="#fff"/>
      <path id="Path_31" data-name="Path 31" d="M287.5,92.77q-1-5.552-2.276-11.494T282.777,70q-1.167-5.331-2.055-9.439t-1.11-5.886q-.223,1.779-1.056,5.886t-1.942,9.384q-1.111,5.275-2.388,11.271t-2.388,11.55H261.4l12.55-48.863L263.4,1.374h10.993q.668,4.331,1.61,9.106t1.777,9.107q.834,4.33,1.5,7.718a48.083,48.083,0,0,1,.776,4.831,47.76,47.76,0,0,1,.778-4.831q.667-3.386,1.555-7.718t1.833-9.107q.941-4.773,1.609-9.106h10.662l-10.772,42.2,12.771,49.2Z" transform="translate(-233.748 -0.374)" fill="#fff"/>
      <path id="Path_32" data-name="Path 32" d="M318.336,92.77V1.374h14.437q8.328,0,12.1,3.942t3.776,12.6V32.913q0,8.661-3.831,12.549t-11.938,3.886h-4.332V92.77Zm20.211-74.96a6.783,6.783,0,0,0-1.332-4.609q-1.332-1.5-4.442-1.5h-4.22V39.354h4.332q5.662,0,5.663-6.108Z" transform="translate(-249.264 -0.374)" fill="#fff"/>
      <path id="Path_33" data-name="Path 33" d="M366.726,15.547Q366.726,0,381.273,0q14.659,0,14.66,15.547v62.3q0,15.549-14.66,15.547-14.549,0-14.547-15.547Zm18.989,0q0-5.218-4.442-5.219-4.33,0-4.331,5.219v62.3q0,5.331,4.331,5.33,4.44,0,4.442-5.33Z" transform="translate(-262.45)" fill="#fff"/>
    </g>
  </svg>
